<?xml version="1.0" encoding="utf-8"?>
<!-- Generator: Adobe Illustrator 15.0.0, SVG Export Plug-In  -->
<!DOCTYPE svg PUBLIC "-//W3C//DTD SVG 1.1//EN" "http://www.w3.org/Graphics/SVG/1.1/DTD/svg11.dtd" [
	<!ENTITY ns_flows "http://ns.adobe.com/Flows/1.0/">
]>
<svg version="1.1"
	 xmlns="http://www.w3.org/2000/svg" xmlns:xlink="http://www.w3.org/1999/xlink" xmlns:a="http://ns.adobe.com/AdobeSVGViewerExtensions/3.0/"
	 x="0px" y="0px" width="247px" height="40px" viewBox="0 0 247 40" overflow="visible" enable-background="new 0 0 247 40"
	 xml:space="preserve">
<defs>
</defs>
<path fill="#FFFFFF" d="M58.555,13.157L45.813,1.496c-0.369-0.369-2.946-2.689-7.561-0.699C33.265,2.95,4.292,14.19,4,14.305
	c-0.115,0.043-0.217,0.107-0.305,0.183c-0.297,0.164-0.596,0.359-0.896,0.589c-3.273,2.516-3.69,6.418-1.172,10.989
	c3.397,6.166,11.675,13.121,16.098,13.817c0.283,0.044,0.554,0.063,0.805,0.056c0.063,0.023,0.13,0.041,0.198,0.053
	c0.172,0.025,0.353,0.008,0.523-0.061l35.89-14.354c0.128-0.053,0.244-0.129,0.342-0.229c0.079-0.08,1.91-1.981,1.507-4.505
	c-0.25-1.562-1.278-2.958-3.062-4.155l4.324-1.794c0.329-0.136,0.566-0.433,0.628-0.785C58.94,13.756,58.818,13.397,58.555,13.157z
	 M3.443,25.052c-2.015-3.656-1.807-6.455,0.615-8.316c2.835-2.177,5.168,0.514,5.422,0.825c0.021,0.026,0.044,0.051,0.065,0.075
	l1.14,1.169L5.99,20.435c-0.49,0.17-0.769,0.687-0.645,1.192c0.06,0.246,1.574,6.061,10.009,10.324
	c2.121,1.072,4.397,2.318,4.562,3.545c0.102,0.734-0.562,1.619-1.274,2.34c-0.035,0-0.071,0.004-0.106,0.008
	C15.899,38.167,7.116,31.716,3.443,25.052z M51.614,17.659c2.017,1.039,3.192,2.248,3.398,3.491
	c0.201,1.218-0.537,2.279-0.834,2.647l-32.44,12.976c0.178-0.525,0.229-1.039,0.162-1.547c-0.296-2.201-2.733-3.599-5.647-5.072
	C10.549,27.271,8.354,23.629,7.615,22l4.623-1.604l8.946,9.174c0.295,0.303,0.745,0.396,1.136,0.234l29.285-12.152
	C51.608,17.655,51.612,17.657,51.614,17.659z M22.175,27.603l-11.11-11.396c-0.448-0.545-1.13-1.166-1.978-1.641
	c8.357-3.251,26.094-10.17,29.984-11.849c3.491-1.507,5.201,0.182,5.261,0.244c0.021,0.021,0.041,0.042,0.063,0.062l11.547,10.569
	L22.175,27.603z"/>
<path fill="#FFFFFF" d="M40.181,16.495l-8.284-8.432l9.39-3.875l8.646,8.243L40.181,16.495z"/>
<path fill="#FFFFFF" d="M35.643,16.044c0.213,0.536-0.046,1.144-0.579,1.358l-13.041,5.24c-0.532,0.213-1.138-0.047-1.351-0.582
	s0.048-1.146,0.579-1.358l13.041-5.24c0.18-0.073,0.367-0.09,0.545-0.063C35.188,15.455,35.5,15.688,35.643,16.044z"/>
<path fill="#FFFFFF" d="M30.583,12.688L17.542,17.93c-0.533,0.214-1.136-0.047-1.35-0.583c-0.213-0.535,0.047-1.144,0.58-1.358
	l13.04-5.24c0.18-0.073,0.369-0.09,0.546-0.063c0.35,0.056,0.664,0.29,0.805,0.645C31.375,11.867,31.115,12.474,30.583,12.688z"/>
<text transform="matrix(1 0 0 1 60.8945 25.7515)"><tspan x="0" y="0" fill="#FFFFFF" font-family="'ProximaNova-Semibold'" font-size="24">C</tspan><tspan x="16.368" y="0" fill="#FFFFFF" font-family="'ProximaNova-Semibold'" font-size="16.6">olumbia </tspan><tspan x="79.995" y="0" fill="#FFFFFF" font-family="'ProximaNova-Semibold'" font-size="24">N</tspan><tspan x="97.274" y="0" fill="#FFFFFF" font-family="'ProximaNova-Semibold'" font-size="16.6">ews</tspan><tspan x="126.888" y="0" fill="#FFFFFF" font-family="'ProximaNova-Semibold'" font-size="24">B</tspan><tspan x="142.464" y="0" fill="#FFFFFF" font-family="'ProximaNova-Semibold'" font-size="16.6">laster</tspan></text>
</svg>
